<?xml version="1.0" standalone="no"?>
<!DOCTYPE svg PUBLIC "-//W3C//DTD SVG 20010904//EN"
 "http://www.w3.org/TR/2001/REC-SVG-20010904/DTD/svg10.dtd">
<svg version="1.0" xmlns="http://www.w3.org/2000/svg"
 width="225.000000pt" height="225.000000pt" viewBox="0 0 225.000000 225.000000"
 preserveAspectRatio="xMidYMid meet">
<metadata>
Created by potrace 1.11, written by Peter Selinger 2001-2013
</metadata>
<g transform="translate(0.000000,225.000000) scale(0.100000,-0.100000)"
fill="#000000" stroke="none">
<path d="M1238 2113 c7 -3 16 -2 19 1 4 3 -2 6 -13 5 -11 0 -14 -3 -6 -6z"/>
<path d="M1280 2104 c66 -25 100 -42 133 -67 20 -16 37 -24 37 -18 0 6 -11 17
-25 23 -14 6 -25 15 -25 20 0 10 13 10 26 -1 16 -14 74 -31 74 -21 0 5 -12 13
-27 16 -16 4 -34 11 -40 16 -7 6 -20 8 -28 4 -8 -3 -15 -1 -15 4 0 5 -7 7 -16
3 -9 -3 -19 -1 -23 5 -3 5 -24 13 -46 16 -22 3 -33 3 -25 0z"/>
<path d="M1520 2030 c0 -10 -40 -25 -55 -21 -5 1 1 -9 14 -23 13 -14 28 -23
34 -19 6 3 7 1 4 -4 -4 -6 9 -34 28 -63 64 -95 96 -246 75 -361 -41 -229 -231
-395 -475 -414 -181 -14 -268 -49 -365 -145 -273 -270 -154 -724 219 -834 98
-29 276 -18 411 26 74 23 223 96 290 141 41 27 193 175 230 222 49 64 103 165
138 260 45 120 64 331 43 474 -42 283 -207 540 -448 694 -67 43 -68 43 -114
32 -60 -16 -84 -3 -33 17 27 11 32 16 20 21 -9 4 -16 2 -16 -3z m-340 -1229
c6 -12 10 -95 10 -202 0 -156 -2 -185 -17 -201 -20 -22 -27 -22 -47 -2 -13 13
-16 42 -16 165 0 82 -4 149 -8 149 -4 0 -13 -5 -19 -11 -19 -19 -58 -6 -61 21
-2 21 7 31 55 62 66 42 88 46 103 19z"/>
<path d="M1045 1831 c-55 -23 -88 -98 -88 -206 -1 -145 39 -206 142 -213 77
-6 124 16 154 72 18 34 22 58 22 141 0 116 -17 162 -70 195 -34 21 -120 27
-160 11z m139 -84 c18 -24 21 -43 21 -122 0 -79 -3 -98 -21 -122 -36 -49 -113
-44 -141 10 -23 43 -23 179 0 224 20 37 30 42 81 40 30 -2 44 -9 60 -30z"/>
</g>
</svg>
