<?xml version="1.0" standalone="no"?>
<!DOCTYPE svg PUBLIC "-//W3C//DTD SVG 20010904//EN"
 "http://www.w3.org/TR/2001/REC-SVG-20010904/DTD/svg10.dtd">
<svg version="1.0" xmlns="http://www.w3.org/2000/svg"
 width="225.000000pt" height="225.000000pt" viewBox="0 0 225.000000 225.000000"
 preserveAspectRatio="xMidYMid meet">
<metadata>
Created by potrace 1.11, written by Peter Selinger 2001-2013
</metadata>
<g transform="translate(0.000000,225.000000) scale(0.100000,-0.100000)"
fill="#000000" stroke="none">
<path d="M975 2113 c-71 -9 -187 -45 -266 -81 -221 -103 -400 -286 -502 -514
-97 -216 -102 -516 -13 -757 57 -151 209 -345 351 -447 57 -41 185 -108 248
-129 199 -67 407 -77 587 -26 127 35 201 67 294 129 39 25 76 45 81 43 6 -1 7
0 3 4 -4 4 20 29 52 56 115 96 223 262 275 424 36 114 40 144 39 310 0 145 -3
182 -23 250 -28 98 -75 213 -107 260 -13 20 -24 38 -24 41 0 13 -113 145 -165
192 -122 112 -289 202 -440 237 -57 13 -313 18 -390 8z"/>
</g>
</svg>
